<svg xmlns="http://www.w3.org/2000/svg" viewBox="0 0 32 32">
  <defs>
    <linearGradient id="g" x1="0" y1="0" x2="1" y2="1">
      <stop offset="0%" stop-color="#22d3ee"/>
      <stop offset="100%" stop-color="#0891b2"/>
    </linearGradient>
  </defs>
  <rect width="32" height="32" rx="8" fill="url(#g)"/>
  <path d="M16 7c-3 0-5 2-5 5 0 1 .5 2 1 3-2 1-3 3-3 5 0 3 2 5 5 5h4c3 0 5-2 5-5 0-2-1-4-3-5 .5-1 1-2 1-3 0-3-2-5-5-5z" fill="white" opacity="0.95"/>
  <circle cx="16" cy="16" r="2" fill="#0891b2"/>
</svg>
